<?xml version="1.0" standalone="no"?>
<!DOCTYPE svg PUBLIC "-//W3C//DTD SVG 20010904//EN"
 "http://www.w3.org/TR/2001/REC-SVG-20010904/DTD/svg10.dtd">
<svg version="1.0" xmlns="http://www.w3.org/2000/svg"
 width="1280.000000pt" height="1170.000000pt" viewBox="0 0 1280.000000 1170.000000"
 preserveAspectRatio="xMidYMid meet">
<metadata>
Created by potrace 1.15, written by Peter Selinger 2001-2017
</metadata>
<g transform="translate(0.000000,1170.000000) scale(0.100000,-0.100000)"
fill="#000000" stroke="none">
<path d="M6640 11694 c-25 -2 -101 -8 -170 -14 -618 -53 -1320 -250 -1819
-511 -562 -295 -1094 -698 -1591 -1205 -546 -557 -867 -1016 -1004 -1435 -61
-186 -80 -300 -80 -489 0 -173 16 -279 65 -450 88 -300 363 -792 436 -778 49
9 12 155 -81 321 -71 129 -87 196 -84 357 3 125 3 126 -25 159 -15 19 -26 36
-23 38 8 8 166 -48 166 -58 0 -5 10 -9 22 -9 12 0 73 -17 136 -37 84 -28 108
-39 90 -43 -12 -3 -24 -13 -26 -21 -8 -40 139 -128 228 -137 44 -4 50 -2 50
15 0 23 -41 64 -87 87 -18 9 -33 19 -33 21 0 6 90 -30 136 -55 21 -11 44 -20
52 -20 7 0 29 -11 50 -25 22 -14 65 -28 107 -35 39 -6 72 -15 73 -21 2 -5 16
-9 31 -9 49 0 95 -22 130 -62 58 -67 139 -100 304 -123 120 -16 208 -48 307
-108 101 -62 241 -124 405 -178 82 -28 164 -57 180 -64 17 -8 95 -26 175 -40
80 -15 169 -34 198 -42 29 -8 65 -12 81 -8 17 4 87 -5 167 -20 112 -22 138
-24 145 -13 8 11 11 11 18 -1 7 -11 30 -13 117 -7 59 4 113 11 120 16 6 6 33
13 60 16 27 4 55 11 62 17 7 5 15 7 18 4 3 -3 85 21 182 54 97 32 184 59 192
59 9 0 39 11 66 25 27 14 99 44 159 66 61 23 115 48 121 55 6 8 14 11 17 8 6
-6 426 196 454 219 10 7 9 14 -2 30 -20 29 -19 37 5 37 33 0 297 207 504 394
193 176 438 461 608 709 194 284 319 504 523 921 274 560 309 684 286 1018
-20 276 -58 442 -137 601 -110 219 -259 358 -529 492 -261 129 -562 217 -898
261 -106 14 -561 26 -657 18z"/>
<path d="M8913 9631 c-73 -53 -105 -103 -234 -361 -50 -102 -101 -198 -112
-213 -11 -16 -32 -55 -47 -86 -33 -68 -141 -247 -290 -480 -77 -120 -131 -191
-201 -265 -52 -56 -109 -121 -126 -146 -17 -25 -49 -61 -72 -81 -22 -21 -48
-52 -57 -70 -9 -19 -33 -47 -54 -64 -34 -27 -80 -97 -80 -122 0 -5 -36 -47
-81 -93 -45 -47 -90 -102 -100 -122 -38 -74 -363 -331 -635 -501 -401 -251
-787 -424 -1154 -517 -153 -39 -217 -49 -395 -60 -232 -15 -335 -39 -490 -118
-110 -56 -210 -88 -415 -133 -201 -45 -286 -81 -398 -166 -124 -95 -297 -302
-479 -573 -124 -184 -148 -253 -81 -237 33 9 153 111 344 291 407 385 601 506
812 506 103 0 141 -40 307 -327 286 -491 464 -711 800 -984 225 -182 530 -388
721 -486 341 -175 617 -252 1359 -379 623 -106 898 -180 1158 -310 204 -102
284 -183 488 -489 374 -562 688 -1103 1051 -1808 618 -1203 609 -1186 705
-1223 91 -35 227 3 518 146 455 224 861 486 842 543 -14 44 -145 -4 -537 -199
-450 -223 -549 -256 -661 -219 -73 24 -155 110 -235 246 -34 57 -172 325 -308
594 -263 525 -421 824 -629 1190 -347 610 -715 1167 -869 1316 -165 160 -414
225 -1323 344 -291 39 -373 53 -505 90 -83 24 -225 71 -285 95 l-30 12 45 18
c25 11 58 19 73 19 79 2 237 63 237 92 0 5 37 9 83 9 97 0 242 35 423 103 226
85 457 198 494 242 7 8 13 25 14 36 1 14 13 26 36 35 24 11 31 11 23 3 -76
-76 191 -547 407 -716 56 -44 94 -54 103 -28 25 64 -208 507 -349 664 -26 29
-67 62 -92 75 l-45 23 34 13 c19 7 68 14 109 15 41 1 85 5 98 9 21 7 22 5 22
-39 0 -55 35 -129 123 -260 104 -156 291 -389 480 -599 125 -138 208 -249 385
-513 394 -589 731 -1162 767 -1305 19 -76 49 -121 124 -191 98 -90 121 -74 70
50 -85 206 -426 840 -666 1236 -104 173 -152 243 -310 460 -69 94 -141 205
-159 245 -60 131 -315 489 -502 702 -78 90 -180 187 -231 220 -22 15 -18 17
125 75 82 32 203 87 270 121 71 37 235 104 395 162 151 55 411 151 579 212
168 62 440 157 605 212 165 55 319 110 342 124 119 69 215 258 257 504 39 229
43 493 11 710 -84 563 -447 1167 -1068 1777 -436 428 -998 829 -1325 947 -99
35 -157 35 -209 -3z"/>
<path d="M2403 6532 c-26 -22 -82 -77 -123 -123 -126 -140 -211 -247 -595
-748 -317 -415 -731 -900 -1145 -1341 -383 -409 -557 -617 -533 -641 28 -28
169 91 587 490 398 380 488 483 866 981 529 697 853 1109 964 1228 71 75 86
99 86 136 0 68 -36 74 -107 18z"/>
<path d="M10920 5186 c-132 -115 -304 -313 -347 -401 -23 -46 -53 -135 -84
-253 -12 -46 -28 -86 -35 -89 -23 -8 -71 34 -316 274 -130 128 -244 233 -252
233 -9 0 -16 -7 -16 -15 0 -17 179 -228 380 -448 74 -82 158 -174 186 -206 43
-46 67 -91 139 -251 306 -685 584 -1112 1279 -1960 335 -408 499 -601 669
-787 177 -192 241 -253 264 -253 38 0 -10 67 -353 485 -310 379 -757 931 -865
1070 -474 608 -826 1196 -971 1622 -30 88 -33 109 -33 208 0 100 3 119 35 205
42 118 121 237 305 458 74 90 135 168 135 173 0 25 -43 2 -120 -65z"/>
<path d="M3 3513 c-31 -81 363 -485 712 -728 206 -144 416 -214 667 -222 252
-9 284 14 108 76 -58 21 -143 56 -190 79 -203 98 -541 312 -785 496 -66 50
-169 127 -229 173 -169 127 -266 171 -283 126z"/>
<path d="M1042 3118 c-35 -35 4 -95 98 -152 77 -45 108 -54 116 -32 8 20 -14
55 -75 119 -65 69 -112 92 -139 65z"/>
<path d="M10840 1648 c1 -75 151 -440 322 -782 111 -222 162 -308 220 -371 75
-83 103 -71 73 32 -26 92 -127 318 -259 583 -185 371 -299 560 -336 560 -14 0
-20 -7 -20 -22z"/>
</g>
</svg>
