<svg xmlns="http://www.w3.org/2000/svg" width="24" height="24" viewBox="0 0 46 46" role="img" aria-label="Google logo">
	<defs>
		<path id="a" d="M44.5 20H24v6h11.9C34.6 30.7 30 34 24 34c-7 0-12.7-5.7-12.7-12.7S17 8.7 24 8.7c3.1 0 5.9 1.2 8 3.1l4.5-4.5C32.1 4.6 28.3 3 24 3 12.4 3 3 12.4 3 24s9.4 21 21 21c12 0 20.9-8.4 20.9-20.3 0-1.4-.1-2.4-.4-3.7z"/>
	</defs>
	<clipPath id="b">
		<use href="#a" overflow="visible"/>
	</clipPath>
	<path clip-path="url(#b)" fill="#4285F4" d="M0 37V9l17 14z"/>
	<path clip-path="url(#b)" fill="#34A853" d="M0 9l17 14 7-6.1L48 14V0H0z"/>
	<path clip-path="url(#b)" fill="#FBBC05" d="M0 37l30-23 7.9 1L48 0v48H0z"/>
	<path clip-path="url(#b)" fill="#EA4335" d="M48 48L17 24l-4-3 35-10z"/>
</svg>
